<svg width="2400" height="1350" viewBox="0 0 2400 1350" fill="none" xmlns="http://www.w3.org/2000/svg" role="img" aria-labelledby="title desc">
  <title id="title">NeuroMed-XAI Benchmark editorial cover</title>
  <desc id="desc">A dark biomedical AI cover showing EEG signals, cortical electrode evidence, attribution overlays, benchmark lanes, and an interpretable report.</desc>
  <defs>
    <linearGradient id="bg" x1="0" y1="0" x2="2400" y2="1350" gradientUnits="userSpaceOnUse">
      <stop stop-color="#03040D"/>
      <stop offset=".5" stop-color="#111934"/>
      <stop offset="1" stop-color="#020309"/>
    </linearGradient>
    <radialGradient id="aura" cx="0" cy="0" r="1" gradientUnits="userSpaceOnUse" gradientTransform="translate(1380 605) rotate(95) scale(820 590)">
      <stop stop-color="#76E8FF" stop-opacity=".42"/>
      <stop offset=".45" stop-color="#BA7BFF" stop-opacity=".22"/>
      <stop offset="1" stop-color="#BA7BFF" stop-opacity="0"/>
    </radialGradient>
    <radialGradient id="amber" cx="0" cy="0" r="1" gradientUnits="userSpaceOnUse" gradientTransform="translate(1660 835) rotate(18) scale(560 380)">
      <stop stop-color="#FFB86B" stop-opacity=".40"/>
      <stop offset="1" stop-color="#FFB86B" stop-opacity="0"/>
    </radialGradient>
    <linearGradient id="evidence" x1="600" y1="414" x2="1960" y2="940" gradientUnits="userSpaceOnUse">
      <stop stop-color="#76E8FF"/>
      <stop offset=".48" stop-color="#B28BFF"/>
      <stop offset="1" stop-color="#FFB86B"/>
    </linearGradient>
    <linearGradient id="glass" x1="0" y1="0" x2="1" y2="1">
      <stop stop-color="#FFFFFF" stop-opacity=".15"/>
      <stop offset="1" stop-color="#FFFFFF" stop-opacity=".032"/>
    </linearGradient>
    <filter id="softBlur"><feGaussianBlur stdDeviation="48"/></filter>
    <filter id="glow" x="-35%" y="-35%" width="170%" height="170%">
      <feGaussianBlur stdDeviation="8" result="blur"/>
      <feMerge><feMergeNode in="blur"/><feMergeNode in="SourceGraphic"/></feMerge>
    </filter>
    <clipPath id="brainClip">
      <path d="M1086 230c-91-12-176 42-205 127-55-6-109 16-143 58-39 49-39 119-2 168-63 27-103 88-103 159 0 95 77 172 172 172h110c31 78 107 132 196 132h328c109 0 197-88 197-197 0-29-6-57-18-82 63-31 103-95 103-168 0-104-84-188-188-188-26 0-52 6-75 16-59-111-182-178-313-153-19-28-38-42-59-44Z"/>
    </clipPath>
  </defs>
  <rect width="2400" height="1350" fill="url(#bg)"/>
  <circle cx="1380" cy="605" r="760" fill="url(#aura)" filter="url(#softBlur)"/>
  <circle cx="1660" cy="835" r="520" fill="url(#amber)" filter="url(#softBlur)"/>
  <g opacity=".34">
    <path d="M0 1110H2400M0 970H2400M0 830H2400M0 690H2400M0 550H2400M0 410H2400" stroke="#B9F5FF" stroke-opacity=".045"/>
    <path d="M300 140V1210M660 140V1210M1020 140V1210M1380 140V1210M1740 140V1210M2100 140V1210" stroke="#B9F5FF" stroke-opacity=".032"/>
  </g>

  <g transform="translate(118 86)">
    <text x="0" y="40" fill="#8CEAFF" font-size="22" letter-spacing="6" font-family="Inter, Segoe UI, Arial">EEG · EXPLAINABLE AI · BIOMEDICAL BENCHMARK</text>
    <text x="0" y="142" fill="#F7FCFF" font-size="86" font-weight="760" font-family="Inter, Segoe UI, Arial">NeuroMed-XAI</text>
    <text x="0" y="236" fill="#F7FCFF" font-size="86" font-weight="760" font-family="Inter, Segoe UI, Arial">Benchmark</text>
    <text x="4" y="294" fill="#A7BEDC" font-size="27" font-family="Inter, Segoe UI, Arial">From model score to interpretable EEG evidence</text>
  </g>

  <g transform="translate(562 190)">
    <g clip-path="url(#brainClip)">
      <rect width="1300" height="940" fill="#061126" fill-opacity=".82"/>
      <path d="M128 565c86-66 166-73 240-21 65 45 126 46 183 3 71-54 151-40 239 44 85 82 181 78 288-14 88-76 168-80 240-12" stroke="url(#evidence)" stroke-width="9" stroke-linecap="round"/>
      <path d="M128 565c86-66 166-73 240-21 65 45 126 46 183 3 71-54 151-40 239 44 85 82 181 78 288-14 88-76 168-80 240-12" stroke="#DDFBFF" stroke-opacity=".08" stroke-width="42" stroke-linecap="round"/>
      <path d="M168 396c98-42 180-39 246 9 68 50 137 54 207 12 78-47 157-30 238 50 70 69 151 77 243 25" stroke="#76E8FF" stroke-opacity=".33" stroke-width="4" stroke-linecap="round"/>
      <path d="M170 728c88-42 168-38 241 13 67 47 132 40 195-21 78-75 168-69 270 18 103 88 205 77 307-31" stroke="#FFB86B" stroke-opacity=".30" stroke-width="4" stroke-linecap="round"/>
      <g filter="url(#glow)">
        <circle cx="248" cy="382" r="14" fill="#76E8FF"/><circle cx="394" cy="440" r="16" fill="#B28BFF"/><circle cx="548" cy="414" r="14" fill="#76E8FF"/><circle cx="704" cy="500" r="17" fill="#FFB86B"/><circle cx="872" cy="594" r="15" fill="#B28BFF"/><circle cx="1048" cy="518" r="15" fill="#76E8FF"/>
        <circle cx="304" cy="690" r="16" fill="#FFB86B"/><circle cx="514" cy="628" r="15" fill="#76E8FF"/><circle cx="774" cy="762" r="17" fill="#B28BFF"/><circle cx="1010" cy="788" r="15" fill="#FFB86B"/>
      </g>
      <path d="M248 382L394 440L548 414L704 500L872 594L1048 518M304 690L514 628L774 762L1010 788M394 440L514 628M704 500L774 762" stroke="#FFFFFF" stroke-opacity=".13" stroke-width="2" stroke-dasharray="8 10"/>
      <g opacity=".72">
        <rect x="214" y="815" width="120" height="10" rx="5" fill="#76E8FF"/><rect x="214" y="838" width="196" height="10" rx="5" fill="#B28BFF"/><rect x="214" y="861" width="82" height="10" rx="5" fill="#FFB86B"/>
        <rect x="822" y="276" width="180" height="10" rx="5" fill="#76E8FF"/><rect x="822" y="299" width="112" height="10" rx="5" fill="#B28BFF"/><rect x="822" y="322" width="226" height="10" rx="5" fill="#FFB86B"/>
      </g>
    </g>
    <path d="M1086 230c-91-12-176 42-205 127-55-6-109 16-143 58-39 49-39 119-2 168-63 27-103 88-103 159 0 95 77 172 172 172h110c31 78 107 132 196 132h328c109 0 197-88 197-197 0-29-6-57-18-82 63-31 103-95 103-168 0-104-84-188-188-188-26 0-52 6-75 16-59-111-182-178-313-153-19-28-38-42-59-44Z" stroke="#DDFBFF" stroke-opacity=".25" stroke-width="3"/>
  </g>

  <g transform="translate(154 392)">
    <rect width="456" height="398" rx="34" fill="url(#glass)" stroke="#D6FBFF" stroke-opacity=".16"/>
    <text x="38" y="62" fill="#EFFCFF" font-size="25" font-weight="700" font-family="Inter, Segoe UI, Arial">benchmark lanes</text>
    <text x="38" y="96" fill="#9FB7D4" font-size="17" font-family="Inter, Segoe UI, Arial">subject-wise split · leakage checks</text>
    <g transform="translate(42 142)">
      <rect x="0" y="0" width="342" height="38" rx="19" fill="#76E8FF" fill-opacity=".15" stroke="#76E8FF" stroke-opacity=".28"/>
      <rect x="0" y="60" width="246" height="38" rx="19" fill="#B28BFF" fill-opacity=".16" stroke="#B28BFF" stroke-opacity=".30"/>
      <rect x="0" y="120" width="302" height="38" rx="19" fill="#FFB86B" fill-opacity=".17" stroke="#FFB86B" stroke-opacity=".30"/>
      <text x="20" y="25" fill="#DDFBFF" font-size="16" font-family="Inter, Segoe UI, Arial">seizure windows</text>
      <text x="20" y="85" fill="#DDFBFF" font-size="16" font-family="Inter, Segoe UI, Arial">sleep staging</text>
      <text x="20" y="145" fill="#DDFBFF" font-size="16" font-family="Inter, Segoe UI, Arial">disease-task cohorts</text>
    </g>
    <path d="M42 332h340" stroke="#FFFFFF" stroke-opacity=".12"/>
    <text x="42" y="366" fill="#FFD49D" font-size="20" font-weight="650" font-family="Inter, Segoe UI, Arial">evaluation before claims</text>
  </g>

  <g transform="translate(1678 728)">
    <rect width="550" height="360" rx="36" fill="url(#glass)" stroke="#D6FBFF" stroke-opacity=".17"/>
    <text x="42" y="68" fill="#EFFCFF" font-size="25" font-weight="700" font-family="Inter, Segoe UI, Arial">interpretable report</text>
    <text x="42" y="104" fill="#9FB7D4" font-size="17" font-family="Inter, Segoe UI, Arial">channel attribution · prototypes · error cases</text>
    <g transform="translate(48 148)">
      <rect x="0" y="0" width="120" height="82" rx="14" fill="#76E8FF" fill-opacity=".12" stroke="#76E8FF" stroke-opacity=".28"/>
      <path d="M14 42c22-16 39-16 51 0 13 16 30 16 51 0" stroke="#76E8FF" stroke-width="3" stroke-linecap="round"/>
      <rect x="144" y="0" width="120" height="82" rx="14" fill="#B28BFF" fill-opacity=".14" stroke="#B28BFF" stroke-opacity=".30"/>
      <path d="M158 48c16-34 34-34 52 0 18 34 36 34 54 0" stroke="#B28BFF" stroke-width="3" stroke-linecap="round"/>
      <rect x="288" y="0" width="120" height="82" rx="14" fill="#FFB86B" fill-opacity=".15" stroke="#FFB86B" stroke-opacity=".30"/>
      <path d="M302 38c18 18 36 18 54 0s36-18 54 0" stroke="#FFB86B" stroke-width="3" stroke-linecap="round"/>
    </g>
    <g transform="translate(52 264)">
      <rect x="0" y="0" width="92" height="12" rx="6" fill="#76E8FF"/><rect x="110" y="0" width="190" height="12" rx="6" fill="#B28BFF"/><rect x="318" y="0" width="138" height="12" rx="6" fill="#FFB86B"/>
      <rect x="0" y="34" width="164" height="12" rx="6" fill="#76E8FF" opacity=".65"/><rect x="184" y="34" width="126" height="12" rx="6" fill="#B28BFF" opacity=".65"/><rect x="330" y="34" width="88" height="12" rx="6" fill="#FFB86B" opacity=".65"/>
    </g>
  </g>

  <g transform="translate(128 1082)">
    <rect width="970" height="112" rx="28" fill="url(#glass)" stroke="#D6FBFF" stroke-opacity=".12"/>
    <text x="34" y="44" fill="#DDFBFF" font-size="24" font-weight="700" font-family="Inter, Segoe UI, Arial">Visual basis</text>
    <text x="34" y="82" fill="#9FB7D4" font-size="20" font-family="Inter, Segoe UI, Arial">XAI for EEG · SHAP seizure detection · prototype sleep staging · Nature / IEEE cover systems</text>
  </g>
  <text x="128" y="1250" fill="#6F8EB8" font-size="18" font-family="Inter, Segoe UI, Arial">Research prototype only. This image is an original schematic inspired by cited literature and cover-style conventions; it does not reproduce journal cover art.</text>
</svg>
